PathFileType	4	(X/Y/Z)	C:/Users/opensim2020/Desktop/walking_exp_matlab/subject03_walking07_straight_03.trc																																																																																																																																								
DataRate	CameraRate	NumFrames	NumMarkers	Units	OrigDataRate	OrigDataStartFrame	OrigNumFrames																																																																																																																																				
100	100	5	46	mm	100	2279	306																																																																																																																																				
Frame#	Time	LFHD			RFHD			LBHD			RBHD			C7			T10			CLAV			STRN			RBAK			LSHO			LUPA			LELB			LFRM			LWRA			LWRB			LFIN			RSHO			RUPA			RELB			RFRM			RWRA			RWRB			RFIN			LASI			RASI			LPSI			RPSI			LTHI			LKNE			LTIB			LANK			LHEE			LTOE			RTHI			RKNE			RTIB			RANK			RHEE			RTOE			*39			*40			*41			*42			*43			*44			*45		
		X1	Y1	Z1	X2	Y2	Z2	X3	Y3	Z3	X4	Y4	Z4	X5	Y5	Z5	X6	Y6	Z6	X7	Y7	Z7	X8	Y8	Z8	X9	Y9	Z9	X10	Y10	Z10	X11	Y11	Z11	X12	Y12	Z12	X13	Y13	Z13	X14	Y14	Z14	X15	Y15	Z15	X16	Y16	Z16	X17	Y17	Z17	X18	Y18	Z18	X19	Y19	Z19	X20	Y20	Z20	X21	Y21	Z21	X22	Y22	Z22	X23	Y23	Z23	X24	Y24	Z24	X25	Y25	Z25	X26	Y26	Z26	X27	Y27	Z27	X28	Y28	Z28	X29	Y29	Z29	X30	Y30	Z30	X31	Y31	Z31	X32	Y32	Z32	X33	Y33	Z33	X34	Y34	Z34	X35	Y35	Z35	X36	Y36	Z36	X37	Y37	Z37	X38	Y38	Z38	X39	Y39	Z39	X40	Y40	Z40	X41	Y41	Z41	X42	Y42	Z42	X43	Y43	Z43	X44	Y44	Z44	X45	Y45	Z45	X46	Y46	Z46
																																																																																																																																											
115	1.14	-246.15587	1629.29822	1359.08728	-242.97527	1634.63794	1492.85632	-369.56644	1574.35779	1368.78101	-361.67151	1580.07336	1499.51917	-391.1239	1425.98657	1429.1438	-438.19412	1115.57751	1433.45215	-272.20795	1344.36414	1424.53979	-237.17963	1177.4397	1419.20288	-445.09769	1256.77612	1531.92932	-321.85458	1381.59314	1270.52783	-348.32303	1184.30994	1201.7937	-351.05948	1061.31287	1189.60669	-332.09946	931.99329	1189.01965	-320.91324	812.00934	1219.30322	-343.34702	819.97949	1167.7937	-333.95334	735.71692	1176.80701	-306.47833	1372.18005	1585.19141	-284.99799	1155.1167	1665.50049	-256.25311	1046.80359	1682.46802	-223.04362	913.76599	1688.81091	-185.39795	820.52203	1654.32715	-210.86308	814.92987	1701.75537	-180.24356	746.6496	1693.28455	-275.12128	948.39911	1312.91113	-271.85608	947.90295	1550.09045	-437.82117	966.51105	1363.36865	-432.72296	981.76691	1512.3667	-259.78595	652.93658	1258.51855	-199.9196	484.13644	1283.06079	-288.88705	305.91431	1288.0929	-359.69019	110.09635	1331.35095	-406.43939	85.23106	1373.12231	-229.62408	42.8844	1344.58728	-345.16223	654.73407	1584.04248	-346.83908	474.99313	1544.88232	-406.94275	292.88232	1544.04248	-446.01889	80.58271	1489.2345	-491.04236	52.22943	1438.24792	-304.69235	37.18559	1470.55542	NaN	NaN	NaN	NaN	NaN	NaN	NaN	NaN	NaN	NaN	NaN	NaN	NaN	NaN	NaN	NaN	NaN	NaN	NaN	NaN	NaN
116	1.15	-236.45737	1628.57495	1358.86633	-233.14896	1634.11865	1492.31604	-360.00235	1573.70984	1368.60718	-351.91516	1579.70288	1499.28455	-381.59119	1425.66992	1429.17761	-428.83194	1115.13135	1433.41235	-262.77768	1343.76428	1424.59485	-227.91316	1176.85718	1419.48645	-435.73618	1256.49927	1532.10095	-312.72467	1380.88586	1270.39795	-341.18579	1183.76306	1201.76587	-346.05768	1060.79846	1189.3562	-328.60095	931.43036	1188.36511	-317.87726	811.513	1218.63318	-341.2597	819.46106	1167.50989	-331.79071	735.10004	1176.86145	-296.96814	1371.83606	1585.15955	-274.11279	1155.1156	1665.68591	-244.55263	1047.11829	1682.82434	-209.74414	914.48297	1689.24939	-170.59039	821.87262	1654.83459	-196.52754	815.68408	1701.98206	-164.88048	747.87268	1693.47632	-265.57904	947.91949	1313.4895	-263.49237	947.32684	1550.67908	-428.46765	966.10419	1362.99695	-424.00571	981.41925	1512.06555	-247.55074	653.10107	1258.26929	-187.93161	484.56082	1285.13086	-269.02237	302.49603	1289.67603	-329.14713	103.04342	1332.42529	-374.63388	75.67449	1374.27795	-195.12675	42.77171	1344.92493	-338.86533	654.44604	1584.12903	-342.38422	474.77832	1544.96655	-404.13116	293.01236	1544.21887	-445.68073	81.3052	1488.95251	-490.71487	53.30591	1437.68188	-304.46512	37.10551	1470.62061	-321.5654	1684.81982	1412.92407	NaN	NaN	NaN	NaN	NaN	NaN	NaN	NaN	NaN	NaN	NaN	NaN	NaN	NaN	NaN	NaN	NaN	NaN
117	1.16	-226.86388	1627.74365	1358.00781	-223.35764	1633.55847	1491.8114	-350.40436	1572.9574	1368.32544	-342.10901	1579.14172	1499.0144	-371.99924	1425.08105	1429.01892	-419.51349	1114.60986	1433.28418	-253.33293	1343.02527	1424.41699	-218.30333	1176.3855	1419.9209	-426.38995	1256.1814	1532.1676	-303.50684	1380.05298	1270.20032	-334.26889	1183.07446	1201.59546	-340.96945	1060.24963	1189.13086	-324.97678	930.71289	1187.87085	-314.63336	810.82898	1218.04199	-338.73059	818.8252	1167.39685	-329.41641	734.46149	1176.87964	-287.44479	1371.3656	1585.1449	-263.31403	1155.02332	1665.86719	-232.79401	1047.33594	1683.06738	-196.54492	915.13879	1689.44409	-155.8029	823.46466	1655.30432	-182.27565	816.48462	1701.99915	-149.61595	749.09656	1693.51257	-255.86475	947.31494	1313.9895	-255.34552	946.58875	1551.18408	-419.15997	965.755	1362.63367	-415.39508	980.93164	1511.65186	-236.19472	653.09467	1258.72888	-176.6866	484.78021	1287.2002	-249.35138	299.25095	1291.14648	-298.50253	96.51133	1333.41296	-342.27591	66.87666	1375.36633	-161.39072	43.13175	1345.50098	-332.58847	654.08179	1584.43494	-337.93549	474.58575	1545.0332	-401.86075	293.59381	1543.79333	-445.21426	81.98027	1488.65759	-490.37131	54.42382	1437.27515	-304.33545	37.07919	1470.66516	NaN	NaN	NaN	-314.69196	1680.7561	1412.56592	NaN	NaN	NaN	NaN	NaN	NaN	NaN	NaN	NaN	NaN	NaN	NaN	NaN	NaN	NaN
118	1.17	-217.17111	1626.84387	1357.57397	-213.5798	1632.87622	1491.29431	-340.6969	1572.07764	1367.98193	-332.35538	1578.46899	1498.65198	-362.33035	1424.45972	1428.88086	-410.26581	1114.00623	1432.96899	-243.76619	1342.21375	1424.34778	-209.20743	1175.26013	1419.96375	-417.07431	1255.7876	1532.1012	-294.17377	1379.16907	1269.92505	-327.1933	1182.36658	1201.52173	-335.67618	1059.67712	1188.91846	-320.76163	930.03101	1187.30591	-311.009	810.21008	1217.53735	-335.96033	818.16046	1167.45483	-326.8587	733.84381	1176.8938	-277.91971	1370.80811	1584.99219	-252.66891	1154.86304	1666.01831	-221.22681	1047.51611	1683.28296	-183.33566	915.71698	1689.46948	-141.397	824.71283	1655.25708	-167.98711	817.1723	1701.76855	-134.25429	750.43329	1693.43323	-246.11299	946.45685	1314.33679	-246.91533	945.82458	1551.70117	-409.69247	965.33502	1362.24731	-406.64459	980.33575	1511.2052	-225.19237	652.76697	1259.22412	-165.59717	484.71021	1289.15674	-229.78468	296.27332	1292.52893	-267.54779	90.85458	1334.40173	-309.78745	59.09856	1376.42212	-127.88225	43.8707	1346.26929	-325.66147	653.28748	1583.90649	-333.41248	474.34625	1545.13611	-399.36487	293.99612	1543.68176	-444.77069	82.74172	1488.4624	-490.0672	55.44479	1436.92688	-304.185	37.04063	1470.72925	-302.19705	1683.37488	1412.06287	NaN	NaN	NaN	NaN	NaN	NaN	NaN	NaN	NaN	NaN	NaN	NaN	NaN	NaN	NaN	NaN	NaN	NaN
119	1.18	-207.45358	1625.95288	1356.99768	-203.83908	1632.12927	1490.73816	-330.91	1571.13782	1367.54785	-322.5683	1577.67053	1498.20654	-352.41437	1423.73083	1428.68127	-400.97958	1113.4176	1432.40088	-234.18552	1341.22107	1424.15234	-199.93198	1174.23718	1420.125	-407.65976	1255.22791	1531.87708	-284.77286	1378.19934	1269.63464	-320.02982	1181.64368	1201.39404	-330.30875	1059.03601	1188.86707	-316.48779	929.39154	1187.05322	-307.14038	809.5365	1217.11658	-332.88132	817.48596	1167.47461	-324.03387	733.17365	1176.90515	-268.31079	1370.17444	1584.88574	-242.17377	1154.65222	1666.15198	-209.79236	1047.53162	1683.36133	-170.35051	916.21808	1689.36389	-127.20084	825.87146	1654.94861	-153.74966	817.79852	1701.33606	-119.04308	751.75616	1692.90979	-236.29489	945.44299	1314.63525	-238.34674	944.98773	1552.09058	-400.18228	964.612	1361.77148	-397.79007	979.72278	1510.6875	-214.78415	651.99298	1259.77283	-154.71979	484.29648	1291.02966	-210.47061	293.45334	1293.82422	-236.75522	85.96495	1335.27502	-277.091	52.42915	1377.51929	-94.86333	44.78691	1347.25244	-319.59174	653.31146	1584.2146	-328.8205	474.05334	1545.24194	-396.67981	294.30438	1543.68726	-444.3894	83.41779	1488.32068	-489.90161	56.51342	1436.57568	-304.05746	36.86502	1470.7113	-292.52145	1682.58533	1411.56177	NaN	NaN	NaN	NaN	NaN	NaN	NaN	NaN	NaN	NaN	NaN	NaN	NaN	NaN	NaN	NaN	NaN	NaN
